<svg width="123" height="80" viewBox="0 0 123 80" fill="none" xmlns="http://www.w3.org/2000/svg">
<path d="M54.5 3.5H50.522C50.1949 3.5 49.8885 3.65991 49.7016 3.92821L4.44254 68.865C4.18198 69.2389 4.20712 69.7416 4.50368 70.0876L9.70068 76.1508C9.89066 76.3724 10.168 76.5 10.4599 76.5H40.5987C40.8563 76.5 41.1039 76.4006 41.29 76.2226L51.9161 66.0585C52.2567 65.7327 52.3235 65.2133 52.0765 64.8118L48.7929 59.4759C48.6109 59.1802 48.2885 59 47.9412 59H33.5" stroke="#000C1E" stroke-width="7"/>
<path d="M52 3.5H55.978C56.3051 3.5 56.6115 3.65991 56.7984 3.92821L102.057 68.865C102.318 69.2389 102.293 69.7416 101.996 70.0876L96.7993 76.1508C96.6093 76.3724 96.332 76.5 96.0401 76.5H65.9013C65.6437 76.5 65.3961 76.4006 65.21 76.2226L54.5839 66.0585C54.2433 65.7327 54.1765 65.2133 54.4235 64.8118L57.7071 59.4759C57.8891 59.1802 58.2115 59 58.5588 59H73" stroke="#000C1E" stroke-width="7"/>
<path d="M94.5 77H111.985C112.308 77 112.611 76.844 112.799 76.5812L119.589 67.0757C119.835 66.7307 119.837 66.2678 119.594 65.9206L75.7986 3.4261C75.6114 3.15903 75.3058 3 74.9797 3H67.4725C67.1733 3 66.8899 3.1339 66.7 3.36496L62 9.08219" stroke="#000C1E" stroke-width="6"/>
</svg>
