<svg width="726" height="89" viewBox="0 0 726 89" fill="none" xmlns="http://www.w3.org/2000/svg">
<path d="M169.883 44.6934L157.749 84H144.863L163.149 34.2344H171.318L169.883 44.6934ZM179.932 84L167.764 44.6934L166.191 34.2344H174.463L192.852 84H179.932ZM179.453 65.4404V74.7031H153.921V65.4404H179.453ZM216.812 62.8428H203.994L203.926 54.9814H214.316C216.185 54.9814 217.677 54.7764 218.794 54.3662C219.91 53.9333 220.719 53.3066 221.221 52.4863C221.745 51.666 222.007 50.6406 222.007 49.4102C222.007 47.9974 221.745 46.8581 221.221 45.9922C220.697 45.1263 219.865 44.4997 218.726 44.1123C217.609 43.7021 216.162 43.4971 214.385 43.4971H208.506V84H196.509V34.2344H214.385C217.461 34.2344 220.207 34.5192 222.622 35.0889C225.037 35.6357 227.088 36.4788 228.774 37.6182C230.483 38.7575 231.782 40.193 232.671 41.9248C233.56 43.6338 234.004 45.6504 234.004 47.9746C234.004 50.0026 233.571 51.9053 232.705 53.6826C231.839 55.46 230.392 56.9069 228.364 58.0234C226.359 59.1172 223.613 59.6868 220.127 59.7324L216.812 62.8428ZM216.333 84H201.089L205.19 74.7715H216.333C217.974 74.7715 219.284 74.5208 220.264 74.0195C221.266 73.4954 221.984 72.8118 222.417 71.9688C222.873 71.1029 223.101 70.1458 223.101 69.0977C223.101 67.8216 222.884 66.7165 222.451 65.7822C222.041 64.848 221.38 64.1302 220.469 63.6289C219.557 63.1048 218.338 62.8428 216.812 62.8428H206.729L206.797 54.9814H218.862L221.665 58.126C224.992 57.9893 227.624 58.4564 229.561 59.5273C231.52 60.5983 232.922 62.0111 233.765 63.7656C234.608 65.5202 235.029 67.3545 235.029 69.2686C235.029 72.527 234.323 75.25 232.91 77.4375C231.52 79.625 229.435 81.2656 226.655 82.3594C223.875 83.4531 220.435 84 216.333 84ZM257.861 84H246.821L246.89 74.7715H257.861C260.14 74.7715 262.065 74.2246 263.638 73.1309C265.233 72.0371 266.44 70.4079 267.261 68.2432C268.104 66.0557 268.525 63.3669 268.525 60.1768V58.0234C268.525 55.6309 268.286 53.5345 267.808 51.7344C267.352 49.9115 266.668 48.3962 265.757 47.1885C264.845 45.958 263.706 45.0352 262.339 44.4199C260.994 43.8047 259.445 43.4971 257.69 43.4971H246.616V34.2344H257.69C261.063 34.2344 264.15 34.8154 266.953 35.9775C269.779 37.1169 272.217 38.7575 274.268 40.8994C276.341 43.0186 277.936 45.5365 279.053 48.4531C280.192 51.347 280.762 54.5599 280.762 58.0918V60.1768C280.762 63.6859 280.192 66.8988 279.053 69.8154C277.936 72.7321 276.353 75.25 274.302 77.3691C272.251 79.4883 269.824 81.1289 267.021 82.291C264.242 83.4303 261.188 84 257.861 84ZM253.691 34.2344V84H241.694V34.2344H253.691ZM314.019 34.2344H326.016V66.7393C326.016 70.613 325.207 73.8942 323.589 76.583C321.971 79.249 319.704 81.2656 316.787 82.6328C313.87 84 310.441 84.6836 306.499 84.6836C302.603 84.6836 299.173 84 296.211 82.6328C293.271 81.2656 290.97 79.249 289.307 76.583C287.666 73.8942 286.846 70.613 286.846 66.7393V34.2344H298.877V66.7393C298.877 68.79 299.173 70.4648 299.766 71.7637C300.358 73.0397 301.224 73.974 302.363 74.5664C303.503 75.1589 304.881 75.4551 306.499 75.4551C308.14 75.4551 309.518 75.1589 310.635 74.5664C311.751 73.974 312.594 73.0397 313.164 71.7637C313.734 70.4648 314.019 68.79 314.019 66.7393V34.2344ZM366.45 74.7715V84H341.294V74.7715H366.45ZM345.566 34.2344V84H333.569V34.2344H345.566ZM404.39 74.7715V84H379.233V74.7715H404.39ZM383.506 34.2344V84H371.509V34.2344H383.506ZM431.221 44.6934L419.087 84H406.201L424.487 34.2344H432.656L431.221 44.6934ZM441.27 84L429.102 44.6934L427.529 34.2344H435.801L454.189 84H441.27ZM440.791 65.4404V74.7031H415.259V65.4404H440.791ZM491.377 53.9902V63.2188H465.845V53.9902H491.377ZM469.844 34.2344V84H457.847V34.2344H469.844ZM499.443 34.2344V84H487.48V34.2344H499.443ZM519.814 34.2344V84H507.852V34.2344H519.814ZM566.777 44.6934L554.644 84H541.758L560.044 34.2344H568.213L566.777 44.6934ZM576.826 84L564.658 44.6934L563.086 34.2344H571.357L589.746 84H576.826ZM576.348 65.4404V74.7031H550.815V65.4404H576.348ZM609.57 84H598.53L598.599 74.7715H609.57C611.849 74.7715 613.774 74.2246 615.347 73.1309C616.942 72.0371 618.149 70.4079 618.97 68.2432C619.813 66.0557 620.234 63.3669 620.234 60.1768V58.0234C620.234 55.6309 619.995 53.5345 619.517 51.7344C619.061 49.9115 618.377 48.3962 617.466 47.1885C616.554 45.958 615.415 45.0352 614.048 44.4199C612.703 43.8047 611.154 43.4971 609.399 43.4971H598.325V34.2344H609.399C612.772 34.2344 615.859 34.8154 618.662 35.9775C621.488 37.1169 623.926 38.7575 625.977 40.8994C628.05 43.0186 629.645 45.5365 630.762 48.4531C631.901 51.347 632.471 54.5599 632.471 58.0918V60.1768C632.471 63.6859 631.901 66.8988 630.762 69.8154C629.645 72.7321 628.062 75.25 626.011 77.3691C623.96 79.4883 621.533 81.1289 618.73 82.291C615.951 83.4303 612.897 84 609.57 84ZM605.4 34.2344V84H593.403V34.2344H605.4ZM672.974 74.7715V84H646.45V74.7715H672.974ZM650.723 34.2344V84H638.726V34.2344H650.723ZM669.556 53.9902V62.9111H646.45V53.9902H669.556ZM673.076 34.2344V43.4971H646.45V34.2344H673.076ZM719.458 34.2344V84H707.495L689.893 53.0332V84H677.896V34.2344H689.893L707.495 65.2012V34.2344H719.458Z" fill="#00FFFF"/>
<path d="M59.5279 5H51.6518C50.3004 5 49.0404 5.68233 48.3019 6.81406L5.5946 72.2616C4.6445 73.7176 4.74369 75.6206 5.84002 76.9699L10.4788 82.6792C11.2384 83.6141 12.3788 84.1569 13.5833 84.1569H44.2084C45.314 84.1569 46.3704 83.6992 47.1265 82.8926L53.7203 75.8593C54.4154 75.1179 54.8022 74.1397 54.8022 73.1235V71.0259C54.8022 68.8168 53.0113 67.0259 50.8022 67.0259H47.7135H34.7176" stroke="#00FFFF" stroke-width="9" stroke-linejoin="round"/>
<path d="M51.2577 5H59.1339C60.4852 5 61.7452 5.68233 62.4837 6.81406L105.191 72.2616C106.141 73.7176 106.042 75.6206 104.946 76.9699L100.307 82.6792C99.5473 83.6141 98.4069 84.1569 97.2024 84.1569H66.5772C65.4716 84.1569 64.4153 83.6992 63.6591 82.8926L57.1887 75.9909C56.4208 75.1718 56.0325 74.0677 56.1186 72.9483L56.2901 70.7191C56.4504 68.6351 58.1882 67.0259 60.2783 67.0259H74.8866" stroke="#00FFFF" stroke-width="9" stroke-linejoin="round"/>
<path d="M54.802 5H76.8555C78.2069 5 79.4669 5.68233 80.2054 6.81406L122.913 72.2616C123.863 73.7176 123.764 75.6206 122.667 76.9699L118.029 82.6792C117.269 83.6141 116.129 84.1569 114.924 84.1569H82.566" stroke="#00FFFF" stroke-width="9" stroke-linejoin="round"/>
</svg>
