<svg width="560" height="68" viewBox="0 0 560 68" fill="none" xmlns="http://www.w3.org/2000/svg">
<path d="M126.762 35.4888L117.032 66H108.026L121.975 28.3203H127.668L126.762 35.4888ZM134.836 66L125.08 35.4888L124.071 28.3203H129.842L143.842 66H134.836ZM134.422 51.9736V58.4951H114.78V51.9736H134.422ZM162.035 49.7222H152.356L152.305 44.0806H160.301C161.716 44.0806 162.863 43.908 163.743 43.563C164.64 43.2179 165.296 42.7176 165.71 42.062C166.124 41.3892 166.331 40.561 166.331 39.5776C166.331 38.4562 166.124 37.5505 165.71 36.8604C165.296 36.1702 164.64 35.6699 163.743 35.3594C162.863 35.0316 161.725 34.8677 160.327 34.8677H155.41V66H146.974V28.3203H160.327C162.587 28.3203 164.606 28.5273 166.383 28.9414C168.16 29.3555 169.669 29.9938 170.912 30.8564C172.171 31.7191 173.129 32.7974 173.784 34.0913C174.44 35.3853 174.768 36.9121 174.768 38.6719C174.768 40.2074 174.423 41.6393 173.732 42.9678C173.06 44.2962 171.973 45.3745 170.472 46.2026C168.971 47.0308 166.961 47.4793 164.442 47.5483L162.035 49.7222ZM161.699 66H150.208L153.262 59.4785H161.699C162.993 59.4785 164.045 59.2715 164.856 58.8574C165.667 58.4434 166.262 57.8826 166.642 57.1753C167.021 56.4679 167.211 55.6743 167.211 54.7944C167.211 53.7593 167.03 52.8621 166.667 52.103C166.322 51.3439 165.77 50.7573 165.011 50.3433C164.269 49.9292 163.277 49.7222 162.035 49.7222H154.479L154.53 44.0806H163.769L165.736 46.3062C168.134 46.2544 170.049 46.6426 171.481 47.4707C172.93 48.2816 173.974 49.3512 174.612 50.6797C175.251 52.0081 175.57 53.4142 175.57 54.8979C175.57 57.3478 175.044 59.4009 173.991 61.0571C172.939 62.6961 171.377 63.9297 169.307 64.7578C167.254 65.5859 164.718 66 161.699 66ZM192.96 66H184.679L184.731 59.4785H192.96C194.841 59.4785 196.428 59.0472 197.722 58.1846C199.016 57.3047 200 56.0107 200.672 54.3027C201.345 52.5775 201.682 50.4813 201.682 48.0142V46.2803C201.682 44.417 201.492 42.778 201.112 41.3633C200.733 39.9313 200.172 38.7323 199.43 37.7661C198.688 36.8 197.765 36.0754 196.661 35.5923C195.574 35.1092 194.323 34.8677 192.909 34.8677H184.524V28.3203H192.909C195.462 28.3203 197.791 28.7516 199.896 29.6143C202.018 30.4769 203.847 31.7104 205.382 33.3149C206.935 34.9194 208.134 36.8172 208.979 39.0083C209.825 41.1994 210.248 43.6406 210.248 46.332V48.0142C210.248 50.6883 209.825 53.1296 208.979 55.3379C208.134 57.529 206.935 59.4268 205.382 61.0312C203.847 62.6185 202.027 63.8434 199.922 64.7061C197.817 65.5687 195.497 66 192.96 66ZM189.467 28.3203V66H181.03V28.3203H189.467ZM236.023 28.3203H244.459V53.0605C244.459 55.9935 243.838 58.4606 242.596 60.4619C241.371 62.4632 239.663 63.9728 237.472 64.9907C235.281 66.0086 232.745 66.5176 229.864 66.5176C226.965 66.5176 224.412 66.0086 222.204 64.9907C220.013 63.9728 218.287 62.4632 217.028 60.4619C215.786 58.4606 215.165 55.9935 215.165 53.0605V28.3203H223.627V53.0605C223.627 54.6823 223.868 56.0107 224.352 57.0459C224.852 58.0638 225.568 58.8143 226.5 59.2974C227.431 59.7632 228.553 59.9961 229.864 59.9961C231.175 59.9961 232.288 59.7632 233.202 59.2974C234.134 58.8143 234.833 58.0638 235.298 57.0459C235.781 56.0107 236.023 54.6823 236.023 53.0605V28.3203ZM275.074 59.4785V66H256.053V59.4785H275.074ZM258.926 28.3203V66H250.489V28.3203H258.926ZM303.8 59.4785V66H284.779V59.4785H303.8ZM287.651 28.3203V66H279.215V28.3203H287.651ZM324.115 35.4888L314.384 66H305.378L319.327 28.3203H325.021L324.115 35.4888ZM332.189 66L322.433 35.4888L321.423 28.3203H327.194L341.195 66H332.189ZM331.775 51.9736V58.4951H312.133V51.9736H331.775ZM369.61 43.4854V50.0068H350.097V43.4854H369.61ZM352.763 28.3203V66H344.326V28.3203H352.763ZM375.433 28.3203V66H367.022V28.3203H375.433ZM390.675 28.3203V66H382.265V28.3203H390.675ZM426.336 35.4888L416.606 66H407.6L421.549 28.3203H427.242L426.336 35.4888ZM434.411 66L424.654 35.4888L423.645 28.3203H429.416L443.417 66H434.411ZM433.997 51.9736V58.4951H414.354V51.9736H433.997ZM458.478 66H450.197L450.249 59.4785H458.478C460.359 59.4785 461.946 59.0472 463.24 58.1846C464.534 57.3047 465.517 56.0107 466.19 54.3027C466.863 52.5775 467.199 50.4813 467.199 48.0142V46.2803C467.199 44.417 467.009 42.778 466.63 41.3633C466.25 39.9313 465.69 38.7323 464.948 37.7661C464.206 36.8 463.283 36.0754 462.179 35.5923C461.092 35.1092 459.841 34.8677 458.426 34.8677H450.042V28.3203H458.426C460.98 28.3203 463.309 28.7516 465.414 29.6143C467.536 30.4769 469.364 31.7104 470.9 33.3149C472.453 34.9194 473.652 36.8172 474.497 39.0083C475.342 41.1994 475.765 43.6406 475.765 46.332V48.0142C475.765 50.6883 475.342 53.1296 474.497 55.3379C473.652 57.529 472.453 59.4268 470.9 61.0312C469.364 62.6185 467.544 63.8434 465.439 64.7061C463.335 65.5687 461.014 66 458.478 66ZM454.984 28.3203V66H446.548V28.3203H454.984ZM506.535 59.4785V66H486.479V59.4785H506.535ZM489.352 28.3203V66H480.915V28.3203H489.352ZM503.947 43.4854V49.7998H486.479V43.4854H503.947ZM506.561 28.3203V34.8677H486.479V28.3203H506.561ZM541.756 28.3203V66H533.346L519.112 41.6479V66H510.676V28.3203H519.112L533.372 52.6724V28.3203H541.756Z" fill="#00EEFD"/>
<path d="M45.1583 4H39.7001C38.3487 4 37.0887 4.68233 36.3502 5.81406L4.59459 54.4785C3.6445 55.9345 3.74369 57.8375 4.84002 59.1868L7.62983 62.6204C8.38939 63.5552 9.52977 64.098 10.7343 64.098H33.1101C34.2157 64.098 35.272 63.6404 36.0282 62.8338L40.4885 58.0761C41.1836 57.3347 41.5704 56.3566 41.5704 55.3404V55.0917C41.5704 52.8826 39.7795 51.0917 37.5704 51.0917H36.1885H26.3216" stroke="#00EEFD" stroke-width="7" stroke-linejoin="round"/>
<path d="M38.8793 4H44.3375C45.6889 4 46.9489 4.68233 47.6874 5.81406L79.443 54.4785C80.3931 55.9345 80.2939 57.8375 79.1976 59.1868L76.4078 62.6204C75.6482 63.5552 74.5078 64.098 73.3033 64.098H50.9275C49.8219 64.098 48.7656 63.6404 48.0094 62.8338L43.6724 58.2077C42.9046 57.3887 42.5163 56.2846 42.6024 55.1652L42.6316 54.785C42.7919 52.701 44.5297 51.0917 46.6198 51.0917H56.819" stroke="#00EEFD" stroke-width="7" stroke-linejoin="round"/>
<path d="M41.57 4H57.7921C59.1435 4 60.4035 4.68233 61.142 5.81406L92.8976 54.4785C93.8477 55.9345 93.7485 57.8375 92.6522 59.1868L89.8624 62.6204C89.1028 63.5552 87.9624 64.098 86.7579 64.098H62.6492" stroke="#00EEFD" stroke-width="7" stroke-linejoin="round"/>
</svg>
