<svg width="110" height="67" viewBox="0 0 110 67" fill="none" xmlns="http://www.w3.org/2000/svg">
<path d="M28.2161 51.9375H41.9963C42.3147 51.9375 42.6141 52.0892 42.8025 52.3459L43.3991 53.159C43.6681 53.5256 43.6559 54.0275 43.3694 54.3806L36.6775 62.63C36.4877 62.8641 36.2023 63 35.9009 63H8.36735C8.09309 63 7.83087 62.8874 7.64206 62.6885L4.56324 59.4449C4.23559 59.0998 4.1966 58.5715 4.47004 58.1819L42.2042 4.42547C42.3914 4.15877 42.6968 4 43.0227 4H46.7993C47.1232 4 47.4271 4.15695 47.6147 4.42112L51.5697 9.99219M82.7558 63L85.7565 59.4436C86.0506 59.0951 86.0716 58.5917 85.8076 58.2199L51.5697 9.99219M82.7558 63H54.3389C54.0468 63 53.7693 62.8723 53.5793 62.6505L46.9731 54.9368C46.6363 54.5436 46.6553 53.9583 47.0171 53.5878L48.334 52.2389C48.5222 52.0462 48.7802 51.9375 49.0495 51.9375H62.5222M82.7558 63H105.075C105.885 63 106.358 62.0875 105.893 61.4249L65.8191 4.42487C65.6318 4.15851 65.3266 4 65.001 4H56.6902C56.3805 4 56.0882 4.14352 55.8989 4.38863L51.5697 9.99219" stroke="#00EEFD" stroke-width="7"/>
</svg>
