<svg width="577" height="65" viewBox="0 0 577 65" fill="none" xmlns="http://www.w3.org/2000/svg">
<path d="M143.762 32.4888L134.032 63H125.026L138.975 25.3203H144.668L143.762 32.4888ZM151.836 63L142.08 32.4888L141.071 25.3203H146.842L160.842 63H151.836ZM151.422 48.9736V55.4951H131.78V48.9736H151.422ZM179.035 46.7222H169.356L169.305 41.0806H177.301C178.716 41.0806 179.863 40.908 180.743 40.563C181.64 40.2179 182.296 39.7176 182.71 39.062C183.124 38.3892 183.331 37.561 183.331 36.5776C183.331 35.4562 183.124 34.5505 182.71 33.8604C182.296 33.1702 181.64 32.6699 180.743 32.3594C179.863 32.0316 178.725 31.8677 177.327 31.8677H172.41V63H163.974V25.3203H177.327C179.587 25.3203 181.606 25.5273 183.383 25.9414C185.16 26.3555 186.669 26.9938 187.912 27.8564C189.171 28.7191 190.129 29.7974 190.784 31.0913C191.44 32.3853 191.768 33.9121 191.768 35.6719C191.768 37.2074 191.423 38.6393 190.732 39.9678C190.06 41.2962 188.973 42.3745 187.472 43.2026C185.971 44.0308 183.961 44.4793 181.442 44.5483L179.035 46.7222ZM178.699 63H167.208L170.262 56.4785H178.699C179.993 56.4785 181.045 56.2715 181.856 55.8574C182.667 55.4434 183.262 54.8826 183.642 54.1753C184.021 53.4679 184.211 52.6743 184.211 51.7944C184.211 50.7593 184.03 49.8621 183.667 49.103C183.322 48.3439 182.77 47.7573 182.011 47.3433C181.269 46.9292 180.277 46.7222 179.035 46.7222H171.479L171.53 41.0806H180.769L182.736 43.3062C185.134 43.2544 187.049 43.6426 188.481 44.4707C189.93 45.2816 190.974 46.3512 191.612 47.6797C192.251 49.0081 192.57 50.4142 192.57 51.8979C192.57 54.3478 192.044 56.4009 190.991 58.0571C189.939 59.6961 188.377 60.9297 186.307 61.7578C184.254 62.5859 181.718 63 178.699 63ZM209.96 63H201.679L201.731 56.4785H209.96C211.841 56.4785 213.428 56.0472 214.722 55.1846C216.016 54.3047 217 53.0107 217.672 51.3027C218.345 49.5775 218.682 47.4813 218.682 45.0142V43.2803C218.682 41.417 218.492 39.778 218.112 38.3633C217.733 36.9313 217.172 35.7323 216.43 34.7661C215.688 33.8 214.765 33.0754 213.661 32.5923C212.574 32.1092 211.323 31.8677 209.909 31.8677H201.524V25.3203H209.909C212.462 25.3203 214.791 25.7516 216.896 26.6143C219.018 27.4769 220.847 28.7104 222.382 30.3149C223.935 31.9194 225.134 33.8172 225.979 36.0083C226.825 38.1994 227.248 40.6406 227.248 43.332V45.0142C227.248 47.6883 226.825 50.1296 225.979 52.3379C225.134 54.529 223.935 56.4268 222.382 58.0312C220.847 59.6185 219.027 60.8434 216.922 61.7061C214.817 62.5687 212.497 63 209.96 63ZM206.467 25.3203V63H198.03V25.3203H206.467ZM253.023 25.3203H261.459V50.0605C261.459 52.9935 260.838 55.4606 259.596 57.4619C258.371 59.4632 256.663 60.9728 254.472 61.9907C252.281 63.0086 249.745 63.5176 246.864 63.5176C243.965 63.5176 241.412 63.0086 239.204 61.9907C237.013 60.9728 235.287 59.4632 234.028 57.4619C232.786 55.4606 232.165 52.9935 232.165 50.0605V25.3203H240.627V50.0605C240.627 51.6823 240.868 53.0107 241.352 54.0459C241.852 55.0638 242.568 55.8143 243.5 56.2974C244.431 56.7632 245.553 56.9961 246.864 56.9961C248.175 56.9961 249.288 56.7632 250.202 56.2974C251.134 55.8143 251.833 55.0638 252.298 54.0459C252.781 53.0107 253.023 51.6823 253.023 50.0605V25.3203ZM292.074 56.4785V63H273.053V56.4785H292.074ZM275.926 25.3203V63H267.489V25.3203H275.926ZM320.8 56.4785V63H301.779V56.4785H320.8ZM304.651 25.3203V63H296.215V25.3203H304.651ZM341.115 32.4888L331.384 63H322.378L336.327 25.3203H342.021L341.115 32.4888ZM349.189 63L339.433 32.4888L338.423 25.3203H344.194L358.195 63H349.189ZM348.775 48.9736V55.4951H329.133V48.9736H348.775ZM386.61 40.4854V47.0068H367.097V40.4854H386.61ZM369.763 25.3203V63H361.326V25.3203H369.763ZM392.433 25.3203V63H384.022V25.3203H392.433ZM407.675 25.3203V63H399.265V25.3203H407.675ZM443.336 32.4888L433.606 63H424.6L438.549 25.3203H444.242L443.336 32.4888ZM451.411 63L441.654 32.4888L440.645 25.3203H446.416L460.417 63H451.411ZM450.997 48.9736V55.4951H431.354V48.9736H450.997ZM475.478 63H467.197L467.249 56.4785H475.478C477.359 56.4785 478.946 56.0472 480.24 55.1846C481.534 54.3047 482.517 53.0107 483.19 51.3027C483.863 49.5775 484.199 47.4813 484.199 45.0142V43.2803C484.199 41.417 484.009 39.778 483.63 38.3633C483.25 36.9313 482.69 35.7323 481.948 34.7661C481.206 33.8 480.283 33.0754 479.179 32.5923C478.092 32.1092 476.841 31.8677 475.426 31.8677H467.042V25.3203H475.426C477.98 25.3203 480.309 25.7516 482.414 26.6143C484.536 27.4769 486.364 28.7104 487.9 30.3149C489.453 31.9194 490.652 33.8172 491.497 36.0083C492.342 38.1994 492.765 40.6406 492.765 43.332V45.0142C492.765 47.6883 492.342 50.1296 491.497 52.3379C490.652 54.529 489.453 56.4268 487.9 58.0312C486.364 59.6185 484.544 60.8434 482.439 61.7061C480.335 62.5687 478.014 63 475.478 63ZM471.984 25.3203V63H463.548V25.3203H471.984ZM523.535 56.4785V63H503.479V56.4785H523.535ZM506.352 25.3203V63H497.915V25.3203H506.352ZM520.947 40.4854V46.7998H503.479V40.4854H520.947ZM523.561 25.3203V31.8677H503.479V25.3203H523.561ZM558.756 25.3203V63H550.346L536.112 38.6479V63H527.676V25.3203H536.112L550.372 49.6724V25.3203H558.756Z" fill="#00EEFD"/>
<path d="M28.9794 50.9375H43.821C44.1275 50.9375 44.4171 51.0781 44.6067 51.319L45.2457 52.1307C45.5428 52.5081 45.5296 53.0434 45.2143 53.4057L38.0339 61.6565C37.844 61.8747 37.5689 62 37.2796 62H7.63342C7.37135 62 7.11976 61.8971 6.93277 61.7135L3.62575 58.466C3.26768 58.1144 3.22569 57.5519 3.52758 57.151L44.0064 3.39844C44.1953 3.14755 44.4912 3 44.8052 3H48.9744C49.2865 3 49.5808 3.14577 49.7699 3.3941L54.0335 8.99219M87.4905 62L90.688 58.4676C91.0112 58.1105 91.034 57.5737 90.7422 57.1906L54.0335 8.99219M87.4905 62H56.9498C56.6699 62 56.4028 61.8827 56.2135 61.6766L49.1277 53.9646C48.7591 53.5634 48.7794 52.941 49.1735 52.5647L50.5881 51.2142C50.7741 51.0366 51.0214 50.9375 51.2786 50.9375H65.7835M87.4905 62H111.493C112.319 62 112.789 61.0567 112.292 60.3978L69.3001 3.39784C69.1111 3.1473 68.8155 3 68.5017 3H59.47C59.1723 3 58.8901 3.13265 58.7001 3.36186L54.0335 8.99219" stroke="#00EEFD" stroke-width="6"/>
</svg>
